<svg xmlns="http://www.w3.org/2000/svg" xmlns:xlink="http://www.w3.org/1999/xlink" viewBox="0 0 300 300"><defs><style>.cls-1{isolation:isolate;}.cls-2{fill:#fff;stroke:#716d6d;stroke-miterlimit:10;stroke-width:0.79px;}.cls-3{opacity:0.2;}.cls-3,.cls-5{mix-blend-mode:multiply;}.cls-4{fill:#ededed;}.cls-5{opacity:0.18;}.cls-6{fill:url(#Degradado_sin_nombre_15);}.cls-7{fill:#009d3d;}</style><linearGradient id="Degradado_sin_nombre_15" x1="149.96" y1="281.72" x2="149.96" y2="20.64" gradientTransform="translate(0.04 0.02)" gradientUnits="userSpaceOnUse"><stop offset="0.15" stop-color="#9d9d9c"/><stop offset="0.43" stop-color="#babab9"/><stop offset="1" stop-color="#fff"/></linearGradient></defs><title>CÍAS</title><g class="cls-1"><g id="Capa_1" data-name="Capa 1"><path class="cls-2" d="M290,262a28,28,0,0,1-28,28H38a28,28,0,0,1-28-28V38A28,28,0,0,1,38,10H262a28,28,0,0,1,28,28Z"/><g class="cls-3"><path class="cls-4" d="M286.31,259.05a27.26,27.26,0,0,1-27.26,27.26H41a27.27,27.27,0,0,1-27.26-27.27V41A27.25,27.25,0,0,1,41,13.69h218.1A27.25,27.25,0,0,1,286.31,41Z"/></g><g class="cls-5"><path class="cls-6" d="M285.67,259.23V40.77a27.3,27.3,0,0,0-27.31-27.3H39.9A27.3,27.3,0,0,0,14.33,31.25C50.75,69.46,204.27,230.68,243.41,276.71c3,3.39,6,6.64,9.15,9.82h5.8A27.29,27.29,0,0,0,285.67,259.23Z"/></g><path class="cls-7" d="M46.46,130.34a7.7,7.7,0,0,1,1.38-4.42l7.56-11a2.12,2.12,0,0,1,.14-.19.19.19,0,0,1,.17-.09.26.26,0,0,1,.19.08l.14.2,1.56,2.25a1.23,1.23,0,0,0,1,.53,1.13,1.13,0,0,0,.7-.23,1.21,1.21,0,0,0,.31-1.69l-2.86-4.12a1.23,1.23,0,0,0-1.71-.3,1.86,1.86,0,0,0-.29.29l-26,37.76a1.32,1.32,0,0,0-.08,1.38,1.34,1.34,0,0,0,1.18.72h8.8l10.51-15.29a7.79,7.79,0,0,1-2.66-5.87m8.75,7.3a7.68,7.68,0,0,1,1.41-4.46l6.93-10.08a1.25,1.25,0,0,0-1-2,1.26,1.26,0,0,0-1.07.6L41,151.51H52.3l5.53-8a7.77,7.77,0,0,1-2.62-5.83M83,149.41l-6.69-9.72a1.23,1.23,0,0,0-2.29.61,1.17,1.17,0,0,0,.27.76l4.51,6.56h0l.74,1.09a.22.22,0,0,1-.18.35H65.85a3.52,3.52,0,0,1-1.93-.61,3.46,3.46,0,0,1-.88-4.81l7.48-10.88a1.21,1.21,0,0,0,.24-.73,1.24,1.24,0,0,0-1.23-1.23,1.26,1.26,0,0,0-1,.57L54.66,151.5H81.87a1.34,1.34,0,0,0,1.1-2.1"/><path class="cls-7" d="M128.13,151.51h-5.6a4.69,4.69,0,0,1-4.3-2.88l-3.15-8.12H102.45l-4.23,11h-4.9s11.28-27.34,15-36.45a1.73,1.73,0,0,1,1.51-1.25c.83,0,3.15,0,3.15,0Zm-19.28-27.17s-4.28,10.72-5.12,13h10.08c-.84-2.24-5-13-5-13"/><path class="cls-7" d="M179.11,134.09l0,17.42H170.2V115.36a1.5,1.5,0,0,1,1.64-1.53h10.83c1.38,0,2.56,0,3.54.11a23.09,23.09,0,0,1,2.53.32,9.62,9.62,0,0,1,1.85.58,8.41,8.41,0,0,1,4.08,3.81,8.72,8.72,0,0,1,1,4.23,9.59,9.59,0,0,1-2.17,6.48,12.06,12.06,0,0,1-6.27,3.53c1.74,3.09,11.6,18.62,11.6,18.62h-6.64a5.4,5.4,0,0,1-4.83-3l-7.72-14.41Zm5.5-16a11.25,11.25,0,0,0-5.5-1.12l0,14.9a9.9,9.9,0,0,0,5.63-1.35c1.61-1.08,3-3,3-6.28s-1.43-5.16-3.13-6.15"/><path class="cls-7" d="M130.91,115.4a1.58,1.58,0,0,1,1.67-1.59c4.42,0,15.37,0,19.42,0v2.87a1.66,1.66,0,0,1-1.9,1.84H139.85v11.07h11.94v3A1.57,1.57,0,0,1,150,134.3H139.85v17.21h-9Z"/><path class="cls-7" d="M156.3,115.64a1.57,1.57,0,0,1,1.63-1.82h7.34v37.69h-9Z"/><path class="cls-7" d="M206.89,151.51h-5.13L207.21,115a1.47,1.47,0,0,1,1.57-1.18h3l12.57,26.3,12.7-26.3h3.3a1.53,1.53,0,0,1,1.48,1.18l4.51,36.51h-8.93s-1.73-20.82-2.17-25.11h-.1l-12,25.11h-2.07s-9.81-20.39-11.88-24.56h-.1Z"/><path class="cls-7" d="M250.45,115.18a1.54,1.54,0,0,1,1.67-1.37h19.41v3.1a1.56,1.56,0,0,1-1.32,1.63h-11v11.08h12.08v2.83c0,1.87-1.45,1.85-1.45,1.85H259.23v12.57l12.3,0v3a1.57,1.57,0,0,1-1.65,1.59H250.46Z"/><path class="cls-7" d="M92.62,178v-1h1.49v1c0,2.43,1,4,3.48,4,2.17,0,3.21-1.39,3.21-3.89v-.65c0-2.89-1.07-4.06-3.7-6.2s-4.19-3.7-4.19-6.69v-.33c0-2.95,1.75-4.67,4.51-4.67,2.92,0,4.58,1.69,4.58,4.74v.75h-1.49v-.75c0-2.34-1.11-3.44-3.09-3.44s-3,1.17-3,3.31v.32c0,2.41,1.11,3.54,3.64,5.59,2.95,2.33,4.28,3.76,4.28,7.27v.71c0,3.41-1.72,5.23-4.73,5.23C94.27,183.31,92.62,181.23,92.62,178Z"/><path class="cls-7" d="M122.13,178.05v-7c0-3.28,1.69-5.19,4.52-5.19s4.41,1.62,4.41,5.09v3.64h-7.43v3.44c0,2.53.87,4,3.08,4,1.88,0,2.92-1.1,2.92-3.15v-.45h1.43v.42c0,3-1.62,4.42-4.35,4.42C123.76,183.25,122.13,181.36,122.13,178.05Zm1.5-4.67h5.94V171c0-2.66-.95-3.86-2.92-3.86s-3,1.5-3,4Z"/><path class="cls-7" d="M150.9,184.93h1.49c.1,1.79,1.14,2.7,3.06,2.7,2.07,0,3.21-1.14,3.21-3.74v-3.21a3.87,3.87,0,0,1-3.7,2.4c-2.57,0-4.16-1.62-4.16-4.9v-7.34c0-3.27,1.76-5,4.32-5a3.63,3.63,0,0,1,3.54,2.3v-2.11h1.49v17.86c0,3.37-1.78,4.93-4.67,4.93S151,187.4,150.9,184.93Zm7.76-6.85V171c0-2.33-1.17-3.83-3.31-3.83-1.92,0-3,1.17-3,3.74v7.3c0,2.6,1.13,3.67,3,3.67C157.33,181.85,158.66,180.39,158.66,178.08Z"/><path class="cls-7" d="M189.08,183.05h-1.49v-2.14a3.73,3.73,0,0,1-3.51,2.34c-2.24,0-3.54-1.3-3.54-4.22v-13H182V179c0,2,.78,3,2.47,3a3,3,0,0,0,3.08-3.22V166.07h1.49Z"/><path class="cls-7" d="M209.57,166.07h1.5v2.34a3.77,3.77,0,0,1,3.7-2.47v1.4c-2.21.1-3.7,1.1-3.7,3.67v12h-1.5Z"/><path class="cls-7" d="M233.54,178.12V171c0-3.28,1.85-5.16,4.67-5.16s4.71,1.85,4.71,5.13v7.07c0,3.31-1.89,5.17-4.74,5.17S233.54,181.33,233.54,178.12Zm7.85,0v-7.05c0-2.5-1.1-3.93-3.18-3.93S235,168.57,235,171v7.08c0,2.43,1.1,3.89,3.15,3.89S241.39,180.55,241.39,178.12Z"/><path class="cls-7" d="M262.43,178.83v-.42h1.43v.42c0,2.11.94,3.18,2.82,3.18s2.6-.94,2.6-2.92v-.23c0-1.75-1-2.63-3-4-2.3-1.56-3.57-2.73-3.57-5.13v-.13a3.5,3.5,0,0,1,3.8-3.7c2.27,0,3.9,1.17,3.9,4.06v.45h-1.46v-.45c0-2-.91-2.8-2.44-2.8a2.16,2.16,0,0,0-2.4,2.41v.13c0,1.72.87,2.53,3,3.92s3.64,2.7,3.64,5.23v.23c0,2.66-1.3,4.19-4,4.19S262.43,181.69,262.43,178.83Z"/></g></g></svg>