<svg xmlns="http://www.w3.org/2000/svg" xmlns:xlink="http://www.w3.org/1999/xlink" viewBox="0 0 300 300"><defs><style>.cls-1{isolation:isolate;}.cls-2{fill:#fff;stroke:#716d6d;stroke-miterlimit:10;stroke-width:0.79px;}.cls-3{opacity:0.2;}.cls-3,.cls-5{mix-blend-mode:multiply;}.cls-4{fill:#ededed;}.cls-5{opacity:0.18;}.cls-6{fill:url(#Degradado_sin_nombre_15);}.cls-7{fill:#0094cb;}</style><linearGradient id="Degradado_sin_nombre_15" x1="149.96" y1="281.72" x2="149.96" y2="20.64" gradientTransform="translate(0.04 0.02)" gradientUnits="userSpaceOnUse"><stop offset="0.15" stop-color="#9d9d9c"/><stop offset="0.43" stop-color="#babab9"/><stop offset="1" stop-color="#fff"/></linearGradient></defs><title>AIG</title><g class="cls-1"><g id="Capa_1" data-name="Capa 1"><path class="cls-2" d="M290,262a28,28,0,0,1-28,28H38a28,28,0,0,1-28-28V38A28,28,0,0,1,38,10H262a28,28,0,0,1,28,28Z"/><g class="cls-3"><path class="cls-4" d="M286.31,259.05a27.26,27.26,0,0,1-27.26,27.26H41a27.27,27.27,0,0,1-27.26-27.27V41A27.25,27.25,0,0,1,41,13.69h218.1A27.25,27.25,0,0,1,286.31,41Z"/></g><g class="cls-5"><path class="cls-6" d="M285.67,259.23V40.77a27.3,27.3,0,0,0-27.31-27.3H39.9A27.3,27.3,0,0,0,14.33,31.25C50.75,69.46,204.27,230.68,243.41,276.71c3,3.39,6,6.64,9.15,9.82h5.8A27.29,27.29,0,0,0,285.67,259.23Z"/></g><path class="cls-7" d="M149.16,119.27h-8.93v61.79h8.93ZM47,205.77H253V94.23H47Zm197-8.9H55.94V103.15H244.05ZM196,182.53c17.75,0,30.08-14.39,30.08-32.15,0-.42,0-.81,0-1.24H199.09v8.93h17.08C213,167.28,206.31,173.9,196,173.9a23.52,23.52,0,1,1,19.26-37l7.07-4.91A32.13,32.13,0,1,0,196,182.53M87,166.12H113.5l6.69,14.94H130l-24.85-55.45-2.85-6.34h-4.1l-2.84,6.34L70.47,181.06h9.79Zm13.28-29.61,9.26,20.69H90.94Z"/></g></g></svg>