<svg xmlns="http://www.w3.org/2000/svg" xmlns:xlink="http://www.w3.org/1999/xlink" viewBox="0 0 300 300"><defs><style>.cls-1{isolation:isolate;}.cls-2{fill:#fff;stroke:#716d6d;stroke-miterlimit:10;stroke-width:0.79px;}.cls-3{opacity:0.2;}.cls-3,.cls-5{mix-blend-mode:multiply;}.cls-4{fill:#ededed;}.cls-5{opacity:0.18;}.cls-6{fill:url(#Degradado_sin_nombre_15);}.cls-7{fill:#c10230;}</style><linearGradient id="Degradado_sin_nombre_15" x1="149.96" y1="281.72" x2="149.96" y2="20.64" gradientTransform="translate(0.04 0.02)" gradientUnits="userSpaceOnUse"><stop offset="0.15" stop-color="#9d9d9c"/><stop offset="0.43" stop-color="#babab9"/><stop offset="1" stop-color="#fff"/></linearGradient></defs><title>CÍAS</title><g class="cls-1"><g id="Capa_1" data-name="Capa 1"><path class="cls-2" d="M290,262a28,28,0,0,1-28,28H38a28,28,0,0,1-28-28V38A28,28,0,0,1,38,10H262a28,28,0,0,1,28,28Z"/><g class="cls-3"><path class="cls-4" d="M286.31,259.05a27.26,27.26,0,0,1-27.26,27.26H41a27.27,27.27,0,0,1-27.26-27.27V41A27.25,27.25,0,0,1,41,13.69h218.1A27.25,27.25,0,0,1,286.31,41Z"/></g><g class="cls-5"><path class="cls-6" d="M285.67,259.23V40.77a27.3,27.3,0,0,0-27.31-27.3H39.9A27.3,27.3,0,0,0,14.33,31.25C50.75,69.46,204.27,230.68,243.41,276.71c3,3.39,6,6.64,9.15,9.82h5.8A27.29,27.29,0,0,0,285.67,259.23Z"/></g><path class="cls-7" d="M249.07,161.36C247,144.44,190.59,137.55,123.16,146s93.78,6.21,95.4,19.2c1.67,13.38-155.17,50.49-87.75,42.07s120.37-29,118.26-45.88"/><path class="cls-7" d="M208.39,111.9a20.37,20.37,0,1,0,20.37-20.37,20.37,20.37,0,0,0-20.37,20.37"/><path class="cls-7" d="M249.13,203.36a5.08,5.08,0,1,1-5.06-5.06,5,5,0,0,1,5.06,5.06m-8.89,0a3.88,3.88,0,0,0,3.86,4,3.83,3.83,0,0,0,3.77-4,3.82,3.82,0,1,0-7.63,0m3,2.64h-1.15V201a10,10,0,0,1,1.9-.15,3,3,0,0,1,1.71.37,1.37,1.37,0,0,1,.49,1.11,1.29,1.29,0,0,1-1,1.17v.06a1.49,1.49,0,0,1,.9,1.24,3.76,3.76,0,0,0,.36,1.25h-1.24a4.65,4.65,0,0,1-.39-1.22c-.09-.56-.39-.8-1-.8h-.54Zm0-2.86h.54c.64,0,1.15-.22,1.15-.74s-.33-.77-1.05-.77a2.84,2.84,0,0,0-.64.06Z"/><path class="cls-7" d="M52.66,196.35c0,.41.06.5.27.59a5.61,5.61,0,0,0,1.21.09c2.08,0,2.33-.07,2.33-.56a.45.45,0,0,0-.3-.47c-.2-.07-.2-.07-1.13-.07H53.41a4.17,4.17,0,0,1-1.92-.26c-.43-.22-.62-.7-.62-1.5,0-1.07.3-1.51,1.15-1.72a10.9,10.9,0,0,1,2.46-.17c2.08,0,2.56.06,3,.33s.54.64.54,1.52H56.25c0-.51-.18-.58-1.34-.58-.58,0-1.35,0-1.63,0-.48,0-.64.16-.64.5a.44.44,0,0,0,.38.47,3.18,3.18,0,0,0,.73,0h1.67c.16,0,1,0,1.26,0,1.13.05,1.57.55,1.57,1.73s-.32,1.57-1.19,1.76a14.41,14.41,0,0,1-2.6.15c-2.05,0-2.5,0-3-.3-.37-.19-.56-.63-.56-1.34,0,0,0-.17,0-.29Z"/><polygon class="cls-7" points="68.86 192.33 68.86 193.66 64.08 193.66 64.08 194.68 68.58 194.68 68.58 195.85 64.08 195.85 64.08 196.9 68.92 196.9 68.92 198.24 62.3 198.24 62.3 192.33 68.86 192.33"/><path class="cls-7" d="M78.72,194.33c0-.48-.23-.66-.75-.66H76.88c-.75,0-1.48,0-1.62,0a.63.63,0,0,0-.62.65,9.49,9.49,0,0,0,0,1.08c0,1,.13,1.26.58,1.41a6.44,6.44,0,0,0,1.83.08,5.32,5.32,0,0,0,1.16,0c.35-.06.53-.22.56-.52V196H76.44v-1.09h4v.81a4.94,4.94,0,0,1-.15,1.64,1.42,1.42,0,0,1-1.37.9c-.18,0-.72,0-2.47,0a12.21,12.21,0,0,1-2.25-.1,1.58,1.58,0,0,1-1.24-.9,4.57,4.57,0,0,1-.22-1.92,4.44,4.44,0,0,1,.3-2.19,1.72,1.72,0,0,1,1.45-.81,21.24,21.24,0,0,1,2.25-.08,12.11,12.11,0,0,1,2.5.12c.91.23,1.21.69,1.2,1.93Z"/><path class="cls-7" d="M86.33,192.33v2.57c0,1.26,0,1.26.11,1.53s.55.44,1.65.44c1.34,0,1.72,0,1.94-.2s.26-.39.27-.85c0-.12,0-.12,0-.78v-2.71h1.8v3.1a4.2,4.2,0,0,1-.18,1.75,1.79,1.79,0,0,1-1.54,1c-.25,0-1,.06-2.1.06a10.22,10.22,0,0,1-2.43-.14,1.53,1.53,0,0,1-1.2-1.09,5.87,5.87,0,0,1-.13-1.55v-3.18Z"/><path class="cls-7" d="M96.28,192.33h5.11a3.53,3.53,0,0,1,1.59.21c.52.24.75.78.75,1.7a1.89,1.89,0,0,1-.37,1.34c-.2.21-.48.3-1.28.42h.3c.62,0,.85.11,1,.32a1.39,1.39,0,0,1,.25,1v.93h-1.83v-.74c0-.33-.06-.52-.22-.64s-.29-.11-.78-.11H98.08v1.49h-1.8Zm4.61,3c.86,0,1-.11,1-.69,0-.38,0-.54-.16-.66s-.28-.17-.82-.17H98.08v1.52Z"/><path class="cls-7" d="M114.26,192.35a1.63,1.63,0,0,1,1.48,1.59,11.38,11.38,0,0,1,.05,1.43c0,1.44-.15,2-.65,2.42a2.62,2.62,0,0,1-1.71.48c-.33,0-1.12,0-1.69,0a16.4,16.4,0,0,1-2.48-.1,1.53,1.53,0,0,1-1.26-.8,4.19,4.19,0,0,1-.29-2.16,5.4,5.4,0,0,1,.13-1.64,1.5,1.5,0,0,1,1.18-1.16,9.67,9.67,0,0,1,2.6-.18,17.82,17.82,0,0,1,2.64.09m-4.42,1.57c-.24.19-.31.48-.31,1.33s.07,1.19.29,1.37.54.23,1.89.23c1.55,0,1.87,0,2.08-.33s.21-.52.21-1.3c0-1.49,0-1.51-2.24-1.51-1.33,0-1.69,0-1.92.21"/><path class="cls-7" d="M121.52,196.35c0,.41.07.5.28.59A5.54,5.54,0,0,0,123,197c2.08,0,2.33-.07,2.33-.56a.46.46,0,0,0-.3-.47c-.2-.07-.2-.07-1.13-.07h-1.63a4.17,4.17,0,0,1-1.92-.26c-.43-.22-.63-.7-.63-1.5,0-1.07.3-1.51,1.16-1.72a10.9,10.9,0,0,1,2.46-.17c2.08,0,2.56.06,3,.33s.55.64.55,1.52h-1.76c0-.51-.18-.58-1.34-.58-.58,0-1.35,0-1.64,0-.47,0-.63.16-.63.5a.44.44,0,0,0,.38.47,3.18,3.18,0,0,0,.73,0h1.67c.17,0,1,0,1.26,0,1.13.05,1.57.55,1.57,1.73s-.32,1.57-1.19,1.76a14.47,14.47,0,0,1-2.61.15c-2,0-2.5,0-3-.3-.36-.19-.55-.63-.55-1.34,0,0,0-.17,0-.29Z"/><polygon class="cls-7" points="109.36 157.63 109.36 172.89 98.83 157.63 88.38 157.63 88.38 188.13 98.83 188.13 98.83 172.88 109.36 188.13 120.03 188.13 120.03 157.63 109.36 157.63"/><path class="cls-7" d="M148.73,157.63H136l-8.9,30.5h10.17l1.27-3.81h7.62l1.28,3.81h10.16Zm-8.9,21.61,2.54-10.17,2.54,10.17Z"/><path class="cls-7" d="M72.47,157.63H59.76l-8.89,30.5H61l1.28-3.81h7.62l1.27,3.81H81.37Zm-8.9,21.61,2.55-10.17,2.54,10.17Z"/></g></g></svg>