<svg xmlns="http://www.w3.org/2000/svg" xmlns:xlink="http://www.w3.org/1999/xlink" viewBox="0 0 300 300"><defs><style>.cls-1{isolation:isolate;}.cls-2{fill:#fff;stroke:#716d6d;stroke-miterlimit:10;stroke-width:0.79px;}.cls-3{opacity:0.2;}.cls-3,.cls-5{mix-blend-mode:multiply;}.cls-4{fill:#ededed;}.cls-5{opacity:0.18;}.cls-6{fill:url(#Degradado_sin_nombre_15);}.cls-7{fill:#e51d2b;fill-rule:evenodd;}</style><linearGradient id="Degradado_sin_nombre_15" x1="150.76" y1="39.28" x2="150.76" y2="373.29" gradientTransform="translate(0.04 0.02)" gradientUnits="userSpaceOnUse"><stop offset="0.15" stop-color="#9d9d9c"/><stop offset="0.43" stop-color="#babab9"/><stop offset="1" stop-color="#fff"/></linearGradient></defs><title>CÍAS</title><g class="cls-1"><g id="Capa_1" data-name="Capa 1"><path class="cls-2" d="M290,262a28,28,0,0,1-28,28H38a28,28,0,0,1-28-28V38A28,28,0,0,1,38,10H262a28,28,0,0,1,28,28Z"/><g class="cls-3"><path class="cls-4" d="M286.31,259.05a27.25,27.25,0,0,1-27.26,27.26H41A27.26,27.26,0,0,1,13.7,259.05V41A27.25,27.25,0,0,1,41,13.69H259.05A27.24,27.24,0,0,1,286.31,41Z"/></g><g class="cls-5"><path class="cls-6" d="M286.46,258V39.51a27.29,27.29,0,0,0-27.3-27.31H40.7A27.29,27.29,0,0,0,15.13,30C51.54,68.2,205.07,229.41,244.2,275.45c3,3.39,6,6.64,9.16,9.82h5.8A27.29,27.29,0,0,0,286.46,258Z"/></g><path class="cls-7" d="M54.1,126.06A23.94,23.94,0,1,0,78,150,23.94,23.94,0,0,0,54.1,126.06Zm0,45.6A21.66,21.66,0,1,1,75.76,150,21.66,21.66,0,0,1,54.1,171.66Z"/><path class="cls-7" d="M64.94,142.12a3.43,3.43,0,0,0-2.85-.62A4.31,4.31,0,0,0,59.78,139a16.83,16.83,0,0,0-5.68-1,17.06,17.06,0,0,0-5.65,1l-.46.22a3.85,3.85,0,0,0-1.9,2.3,4.1,4.1,0,0,0-3,.73A13.69,13.69,0,0,0,40,146a14.12,14.12,0,0,0-1.65,4.51,3.09,3.09,0,0,0,0,.49,3.55,3.55,0,0,0,1.78,3.22,3.61,3.61,0,0,0,1.93.47l7.79,0c.57,0,2,0,3.15,0V162h2.35v-7.32c1.12,0,2.58,0,3.14,0l7.78,0a3.67,3.67,0,0,0,1.94-.47A3.55,3.55,0,0,0,69.92,151a3.09,3.09,0,0,0,0-.49A13.46,13.46,0,0,0,68.21,146,14.64,14.64,0,0,0,64.94,142.12ZM50.41,152a.58.58,0,0,1-.56.29l-7.93,0a1.13,1.13,0,0,1-.69-.17,1.19,1.19,0,0,1-.6-1.13.49.49,0,0,1,0-.11A11.64,11.64,0,0,1,42,147.13a11.38,11.38,0,0,1,2.58-3.08s0,0,0,0a1.22,1.22,0,0,1,1.81.47l3.95,6.87A.62.62,0,0,1,50.41,152Zm4.34-.09a.72.72,0,0,1-1.31,0l-4.89-8.43a1.38,1.38,0,0,1-.27-.84,1.48,1.48,0,0,1,.84-1.33l.14-.06a14.16,14.16,0,0,1,4.84-.85,14.44,14.44,0,0,1,4.88.86l0,0a1.49,1.49,0,0,1,.91,1.36,1.45,1.45,0,0,1-.28.86ZM67.56,151a1.22,1.22,0,0,1-1.28,1.3l-7.93,0a.58.58,0,0,1-.56-.29.59.59,0,0,1,0-.63l3.95-6.87a1.07,1.07,0,0,1,.49-.54,1.18,1.18,0,0,1,1.31.07l0,0a11.56,11.56,0,0,1,2.58,3.08,11.85,11.85,0,0,1,1.37,3.76Z"/><polygon class="cls-7" points="108.87 149.49 102.59 136.65 93.1 136.65 93.1 162.34 102.59 162.34 102.59 149.49 108.87 162.34 115.13 149.49 115.13 162.34 124.62 162.34 124.62 136.65 115.13 136.65 108.87 149.49"/><path class="cls-7" d="M135,136.65l-7.38,25.69h9.49l1.21-4.22h10.12l1.21,4.22h9.49l-7.38-25.69Zm4.53,17.25,3.85-13.41,3.85,13.41Z"/><path class="cls-7" d="M180,136.66H162.2v25.68h9.49v-10.7H180a7.49,7.49,0,0,0,0-15Zm-6.06,10.63h-2.05v-7.68h2.05c2.15,0,4.22,1.14,4.22,3.47A4.18,4.18,0,0,1,173.9,147.29Z"/><polygon class="cls-7" points="190.74 162.34 200.22 162.34 200.22 151.61 215.96 151.61 215.96 147.4 200.22 147.4 200.22 140.87 215.96 140.87 215.96 136.65 190.74 136.65 190.74 162.34"/><polygon class="cls-7" points="273.29 140.87 273.29 136.65 248.06 136.65 248.06 162.34 273.29 162.34 273.29 158.12 257.57 158.12 257.57 151.61 273.29 151.61 273.29 147.4 257.57 147.4 257.57 140.87 273.29 140.87"/><path class="cls-7" d="M244.52,143.08a6.42,6.42,0,0,0-6.42-6.42H219.27v25.68h9.65V151.7H231a4.23,4.23,0,0,1,4.23,4.22,1.7,1.7,0,0,1,0,.22v6.2h9.33v-6.63a6.43,6.43,0,0,0-6.42-6.22A6.41,6.41,0,0,0,244.52,143.08ZM231,147.29h-2.05v-7.68H231c2.08,0,4.23,1.14,4.23,3.47A4.23,4.23,0,0,1,231,147.29Z"/></g></g></svg>