<svg
  xmlns="http://www.w3.org/2000/svg"
  xmlns:xlink="http://www.w3.org/1999/xlink"
  viewBox="0 0 210.09 100.31"
>
  <defs>
    <style>
      .clsbtnayuda-1 {
        fill: url(#Degradado_sin_nombre_10);
      }
      .clsbtnayuda-2 {
        fill-rule: evenodd;
        fill: url(#Degradado_sin_nombre_10-2);
      }
      .clsbtnayuda-3 {
        fill: #fff;
      }
    </style>
    <linearGradient
      id="Degradado_sin_nombre_10"
      x1="102.13"
      y1="4.8"
      x2="109.55"
      y2="95.86"
      gradientUnits="userSpaceOnUse"
    >
      <stop offset="0" stop-color="#ff8c40" />
      <stop offset="0.32" stop-color="#f84" />
      <stop offset="0.66" stop-color="#ff7a52" />
      <stop offset="1" stop-color="#f66" />
    </linearGradient>
    <linearGradient
      id="Degradado_sin_nombre_10-2"
      x1="156.69"
      y1="4.23"
      x2="163.75"
      y2="90.97"
      xlink:href="#Degradado_sin_nombre_10"
    />
  </defs>
  <title>Insumos</title>
  <g id="Capa_6" data-name="Capa 6">
    <rect
      class="clsbtnayuda-1"
      width="210.09"
      height="81.11"
      rx="36.62"
    />
    <polygon
      class="clsbtnayuda-2"
      points="176.54 74.81 148.32 74.81 176.54 100.31 176.54 74.81"
    />
    <circle
      class="clsbtnayuda-3"
      cx="41.35"
      cy="40.85"
      r="31.26"
    />
    <path
      d="M36.63,32.92H30.56a9.54,9.54,0,0,1,3.06-7.38,11.48,11.48,0,0,1,8.18-2.91,11.91,11.91,0,0,1,5.57,1.2A9.23,9.23,0,0,1,51,27.31a9.06,9.06,0,0,1,1.38,4.78A8.33,8.33,0,0,1,52,34.78a10.74,10.74,0,0,1-1.39,2.71,21.12,21.12,0,0,1-2.66,2.74,18.81,18.81,0,0,0-2.53,2.58,6.77,6.77,0,0,0-.86,2,16,16,0,0,0-.44,3.47H37.82l0-1a13.6,13.6,0,0,1,1.14-5.64,13.81,13.81,0,0,1,3.69-4.77,19.5,19.5,0,0,0,3-3,3.48,3.48,0,0,0,.51-1.9,3.16,3.16,0,0,0-1.24-2.52,5,5,0,0,0-3.32-1A5,5,0,0,0,38,29.68,4.3,4.3,0,0,0,36.63,32.92Zm4.43,18A4,4,0,0,1,44,52.1a3.92,3.92,0,0,1,0,5.62,3.91,3.91,0,0,1-2.85,1.17,4,4,0,0,1-4-4,4,4,0,0,1,4-4Z"
    />
    <path
      class="clsbtnayuda-3"
      d="M97,48.2H89.17l-1.66,6H82.35l6.59-21.52a1.73,1.73,0,0,1,1.75-1.32h4.76a1.72,1.72,0,0,1,1.76,1.32l6.59,21.52H98.67Zm-1.09-3.91-1.92-7a21.18,21.18,0,0,1-.46-2.15h-.9l-.49,2.15-1.92,7Z"
    />
    <path
      class="clsbtnayuda-3"
      d="M114.48,46.61v7.58h-5.06V46.61l-7.55-15.26h5.27l3.8,8.37a17.89,17.89,0,0,1,.86,2.88h.33a18.83,18.83,0,0,1,.83-2.88l3.81-8.37H122Z"
    />
    <path
      class="clsbtnayuda-3"
      d="M142.42,45.09c0,7-2.39,9.53-8.91,9.53-6.88,0-9.36-2.55-9.36-9.53V31.35h5V45.09c0,4.2,1,5.46,4.1,5.46s4.07-1.26,4.07-5.46V31.35h5.07Z"
    />
    <path
      class="clsbtnayuda-3"
      d="M165.45,42.77c0,9-2.55,11.71-9.73,11.71-3.44,0-6.26-.13-8.87-.29V31.35c2.61-.16,5.39-.3,8.87-.3C162.9,31.05,165.45,33.73,165.45,42.77Zm-5.3,0c0-6-1-7.78-4.43-7.78-1.46,0-2.68,0-3.84,0V50.48c1.16,0,2.45,0,3.84,0C159.13,50.51,160.15,48.76,160.15,42.77Z"
    />
    <path
      class="clsbtnayuda-3"
      d="M181.5,48.2h-7.84l-1.66,6h-5.16l6.58-21.52a1.75,1.75,0,0,1,1.76-1.32h4.76a1.73,1.73,0,0,1,1.76,1.32l6.58,21.52h-5.13Zm-1.09-3.91-1.92-7c-.17-.7-.37-1.46-.47-2.15h-.89l-.5,2.15-1.92,7Z"
    />
  </g>
</svg>
